<svg width="512" height="512" viewBox="0 0 512 512" fill="none" xmlns="http://www.w3.org/2000/svg">
<g clip-path="url(#clip0_123_295)">
<path opacity="0.15" d="M340.779 105.045C329.116 105.034 317.933 100.396 309.686 92.1487C301.438 83.9014 296.8 72.7192 296.79 61.056V0H100.224C84.9988 0 70.397 6.0483 59.6309 16.8144C48.8648 27.5804 42.8164 42.1824 42.8164 57.408V403.477C42.839 418.688 48.8973 433.267 59.6609 444.015C70.4245 454.763 85.0135 460.8 100.224 460.8H336.192C351.407 460.8 365.999 454.761 376.764 444.009C387.527 433.257 393.583 418.671 393.6 403.456V105.045H340.779Z" fill="#FF3E4C"/>
<path d="M393.6 105.045H340.778C329.115 105.034 317.933 100.396 309.685 92.1487C301.438 83.9014 296.8 72.7192 296.789 61.056V0L393.6 105.045Z" fill="#FF3E4C"/>
<path d="M435.22 363.946H168.468C149.546 363.946 134.207 379.285 134.207 398.208V477.738C134.207 496.661 149.546 512 168.468 512H435.22C454.143 512 469.482 496.661 469.482 477.738V398.208C469.482 379.285 454.143 363.946 435.22 363.946Z" fill="#FF3E4C"/>
<path d="M405.371 474.768C397.066 474.768 390.92 472.793 386.931 468.84C382.978 464.85 381 458.702 381 450.397V425.264C381 416.887 382.995 410.741 386.984 406.824C390.973 402.871 397.102 400.929 405.371 401.002H418.427C426.769 401.002 432.917 402.98 436.87 406.933C440.823 410.886 442.798 417.032 442.798 425.373V450.397C442.798 458.702 440.823 464.85 436.87 468.84C432.917 472.793 426.769 474.768 418.427 474.768H405.371ZM405.371 465.629H418.427C422.308 465.629 425.354 465.177 427.566 464.27C429.779 463.327 431.338 461.749 432.245 459.536C433.188 457.324 433.659 454.278 433.659 450.397V425.373C433.659 421.529 433.188 418.502 432.245 416.289C431.338 414.077 429.779 412.499 427.566 411.556C425.354 410.613 422.308 410.141 418.427 410.141H405.371C401.527 410.105 398.5 410.54 396.287 411.447C394.075 412.353 392.497 413.913 391.554 416.125C390.611 418.337 390.139 421.384 390.139 425.264V450.397C390.139 454.278 390.594 457.324 391.5 459.536C392.443 461.749 394.02 463.327 396.232 464.27C398.444 465.177 401.491 465.629 405.371 465.629Z" fill="white"/>
<path d="M368.551 474.352C366.998 474.352 365.842 473.991 365.083 473.268C364.361 472.51 364 471.354 364 469.801V405.551C364 403.962 364.361 402.806 365.083 402.083C365.842 401.361 366.998 401 368.551 401C370.14 401 371.295 401.361 372.018 402.083C372.74 402.806 373.101 403.962 373.101 405.551V469.801C373.101 471.354 372.74 472.51 372.018 473.268C371.295 473.991 370.14 474.352 368.551 474.352Z" fill="white"/>
<path d="M302.551 474.46C299.517 474.46 298 472.943 298 469.91V405.551C298 402.517 299.517 401 302.551 401H328.663C338.089 401 345.023 403.239 349.466 407.718C353.944 412.16 356.183 419.094 356.183 428.521V446.94C356.183 456.366 353.961 463.317 349.519 467.796C345.113 472.238 338.161 474.46 328.663 474.46H302.551ZM307.101 465.359H328.663C333.286 465.359 336.933 464.798 339.606 463.679C342.315 462.523 344.229 460.609 345.348 457.936C346.504 455.227 347.082 451.563 347.082 446.94V428.521C347.082 423.934 346.504 420.303 345.348 417.63C344.229 414.922 342.315 412.991 339.606 411.835C336.933 410.679 333.286 410.101 328.663 410.101H307.101V465.359Z" fill="white"/>
<path d="M253.27 474.46C244.999 474.46 238.879 472.491 234.906 468.554C230.969 464.581 229 458.461 229 450.19V405.551C229 404.034 229.38 402.895 230.139 402.137C230.897 401.378 232.034 401 233.551 401C235.068 401 236.206 401.378 236.965 402.137C237.723 402.895 238.101 404.034 238.101 405.551V450.19C238.101 454.055 238.554 457.088 239.457 459.292C240.396 461.495 241.966 463.065 244.169 464.004C246.372 464.907 249.406 465.359 253.27 465.359H266.272C270.136 465.359 273.17 464.907 275.373 464.004C277.576 463.065 279.129 461.495 280.032 459.292C280.971 457.088 281.441 454.055 281.441 450.19V405.551C281.441 404.034 281.821 402.895 282.579 402.137C283.338 401.378 284.474 401 285.991 401C287.508 401 288.647 401.378 289.405 402.137C290.164 402.895 290.542 404.034 290.542 405.551V450.19C290.542 458.461 288.575 464.581 284.638 468.554C280.701 472.491 274.579 474.46 266.272 474.46H253.27Z" fill="white"/>
<path d="M168.109 474.331C165.207 473.207 164.337 471.212 165.497 468.347L191.392 404.59C192.48 402.197 194.184 401 196.505 401H196.723C199.08 401.109 200.676 402.306 201.51 404.59L227.84 468.347C229 471.212 228.166 473.207 225.337 474.331C222.472 475.455 220.478 474.621 219.353 471.829L213.478 457.576H179.588L173.984 471.829C172.859 474.658 170.901 475.492 168.109 474.331ZM183.178 448.437H209.726L196.179 415.47L183.178 448.437Z" fill="white"/>
<path d="M299.305 281.43H275.945V187.009C275.945 183.846 274.689 180.813 272.453 178.576C270.215 176.34 267.184 175.083 264.02 175.083H204.287C202.72 175.083 201.17 175.392 199.723 175.991C198.276 176.59 196.961 177.469 195.854 178.576C194.747 179.684 193.868 180.998 193.269 182.445C192.67 183.892 192.361 185.443 192.361 187.009V281.43H168.895V179.03C168.895 175.437 169.603 171.878 170.979 168.559C172.354 165.239 174.371 162.223 176.912 159.683C179.454 157.144 182.472 155.13 185.792 153.756C189.113 152.383 192.672 151.678 196.265 151.681H271.999C279.252 151.681 286.209 154.562 291.337 159.691C296.466 164.82 299.348 171.776 299.348 179.03L299.305 281.43Z" fill="#FF3E4C"/>
<path d="M271.616 309.12C286.91 309.12 299.307 296.723 299.307 281.429C299.307 266.135 286.91 253.738 271.616 253.738C256.323 253.738 243.926 266.135 243.926 281.429C243.926 296.723 256.323 309.12 271.616 309.12Z" fill="#FF3E4C"/>
<path d="M164.8 309.12C180.093 309.12 192.491 296.723 192.491 281.429C192.491 266.135 180.093 253.738 164.8 253.738C149.507 253.738 137.109 266.135 137.109 281.429C137.109 296.723 149.507 309.12 164.8 309.12Z" fill="#FF3E4C"/>
</g>
<defs>
<clipPath id="clip0_123_295">
<rect width="512" height="512" fill="white"/>
</clipPath>
</defs>
</svg>
