<svg id="Layer_1" enable-background="new 0 0 512 512" height="512" viewBox="0 0 512 512" width="512" xmlns="http://www.w3.org/2000/svg"><g><path d="m110.334 94.267h130.666v98.533h-130.666z"/><path d="m497 64.267h-1.066v-33.2c0-8.284-6.716-15-15-15s-15 6.716-15 15v33.2h-34.268v-33.2c0-8.284-6.716-15-15-15s-15 6.716-15 15v33.2h-1.066c-8.284 0-15 6.716-15 15v48.2c0 29.68 20.571 54.633 48.201 61.386v211.747c0 9.447-7.687 17.134-17.135 17.134-9.447 0-17.133-7.687-17.133-17.134v-144.6c0-38.579-27.709-70.791-64.268-77.824v-123.01c.001-30.419-24.747-55.166-55.165-55.166h-208.868c-30.418 0-55.166 24.747-55.166 55.166v426.834h-1.066c-8.284 0-15 6.716-15 15s6.716 15 15 15h16.066 289.199 16.068c8.284 0 15-6.716 15-15s-6.716-15-15-15h-1.068v-272.924c19.853 6.361 34.268 24.987 34.268 46.924v144.6c0 25.989 21.144 47.134 47.133 47.134 25.99 0 47.135-21.145 47.135-47.134v-211.747c27.629-6.753 48.199-31.707 48.199-61.386v-48.2c0-8.285-6.716-15-15-15zm-273.775 294.841-34.143 68.283c-2.628 5.257-7.926 8.295-13.428 8.295-2.254 0-4.543-.51-6.697-1.587-7.409-3.704-10.412-12.715-6.707-20.124l23.287-46.575h-44.012c-5.199 0-10.026-2.691-12.76-7.114-2.732-4.422-2.981-9.944-.656-14.594l34.141-68.283c3.704-7.409 12.714-10.416 20.124-6.708 7.409 3.704 10.413 12.714 6.708 20.124l-23.287 46.575h44.014c5.199 0 10.027 2.691 12.76 7.114 2.732 4.423 2.981 9.945.656 14.594zm47.775-151.308c0 8.284-6.716 15-15 15h-160.666c-8.284 0-15-6.716-15-15v-128.533c0-8.284 6.716-15 15-15h160.666c8.284 0 15 6.716 15 15z"/></g></svg>