<svg id="ICON" height="512" viewBox="0 0 32 32" width="512" xmlns="http://www.w3.org/2000/svg"><path d="m30.969 25.719c-.276-1.808-1.012-6.611-3.187-9.342-4.334-5.441-10.967-6.072-13.782-6.075v-4.302c0-.396-.233-.754-.596-.915-.361-.16-.785-.092-1.077.175l-11 10c-.215.195-.334.475-.327.766.008.291.142.564.367.748l11 9c.298.245.712.294 1.062.13.349-.166.571-.518.571-.904v-4.932c2.28-.11 4.529.186 6.692.884 4.154 1.341 6.943 3.841 8.551 5.702.194.225.474.346.757.346.142 0 .284-.03.419-.092.405-.187.637-.619.569-1.06l-.02-.129z"/></svg>