<svg height="512" viewBox="0 0 32 32" width="512" xmlns="http://www.w3.org/2000/svg"><g id="_x31_7"><path d="m28.4228516 9.5390625c-.2548828-.4902344-.8583984-.6816406-1.3486328-.4248047-.4897461.2548828-.6801758.859375-.4248047 1.3486328.8959961 1.7207032 1.3505859 3.5839844 1.3505859 5.5371094 0 6.6171875-5.3833008 12-12 12s-12-5.3828125-12-12 5.3833008-12 12-12c2.397522 0 4.7380981.727417 6.7111206 2.0582275-.4085693.1256104-.7111206.4915772-.7111206.9417725 0 .5527344.4477539 1 1 1h2c.5522461 0 1-.4472656 1-1v-2c0-.5527344-.4477539-1-1-1-.4031982 0-.7460938.241394-.9043579.5852661-2.3557129-1.6706543-5.1900025-2.5852661-8.0956421-2.5852661-7.7197266 0-14 6.2802734-14 14s6.2802734 14 14 14 14-6.2802734 14-14c0-2.2460937-.5454102-4.4804687-1.5771484-6.4609375z"/><path d="m15 12.5v2c0 .276123.223877.5.5.5h2c.276123 0 .5-.223877.5-.5v-2c0-.2761841-.223877-.5-.5-.5h-2c-.276123 0-.5.2238159-.5.5z"/><path d="m11 12.5v2c0 .276123.223877.5.5.5h2c.276123 0 .5-.223877.5-.5v-2c0-.2761841-.223877-.5-.5-.5h-2c-.276123 0-.5.2238159-.5.5z"/><path d="m7 12.5v2c0 .276123.223877.5.5.5h2c.276123 0 .5-.223877.5-.5v-2c0-.2761841-.223877-.5-.5-.5h-2c-.276123 0-.5.2238159-.5.5z"/><path d="m11.5 8h-2c-.276123 0-.5.2238159-.5.5v2c0 .276123.223877.5.5.5h2c.276123 0 .5-.223877.5-.5v-2c0-.2761841-.223877-.5-.5-.5z"/><path d="m15.5 8h-2c-.276123 0-.5.2238159-.5.5v2c0 .276123.223877.5.5.5h2c.276123 0 .5-.223877.5-.5v-2c0-.2761841-.223877-.5-.5-.5z"/><path d="m6 17v3c0 .5527344.4477539 1 1 1h1c0 1.1025391.8969727 2 2 2s2-.8974609 2-2h8c0 1.1025391.8969727 2 2 2s2-.8974609 2-2h1c.5522461 0 1-.4472656 1-1v-4c0-.265625-.1054688-.5195313-.2929688-.7070313l-3-3c-.1874999-.1874999-.4418945-.2929687-.7070312-.2929687h-2c-.5522461 0-1 .4472656-1 1v3h-12c-.5522461 0-1 .4472656-1 1zm16 5c-.5512695 0-1-.4482422-1-1s.4487305-1 1-1 1 .4482422 1 1-.4487305 1-1 1zm-2-8.5c0-.2761841.223877-.5.5-.5h1.5l3 3h-5zm-10 6.5c.5512695 0 1 .4482422 1 1s-.4487305 1-1 1-1-.4482422-1-1 .4487305-1 1-1z"/></g></svg>