<svg width="512" height="512" viewBox="0 0 512 512" fill="none" xmlns="http://www.w3.org/2000/svg">
<path d="M488.727 209.455V162.91C488.727 137.204 467.888 116.365 442.182 116.365H46.545C20.839 116.364 0 137.203 0 162.909V349.091C0 374.797 20.839 395.636 46.545 395.636H442.181C467.887 395.636 488.726 374.797 488.726 349.091V302.546C501.579 302.546 511.999 292.126 511.999 279.273V232.728C512 219.874 501.58 209.455 488.727 209.455ZM465.455 232.727V349.091C465.455 361.944 455.035 372.364 442.182 372.364H46.545C33.692 372.364 23.272 361.944 23.272 349.091V162.909C23.272 150.056 33.692 139.636 46.545 139.636H442.181C455.034 139.636 465.454 150.056 465.454 162.909L465.455 232.727Z" fill="black"/>
<g clip-path="url(#clip0_121_191)">
<path d="M337.341 230.315C336.322 228.415 334.159 227.203 331.783 227.203H270.077L307.426 171.221C308.55 169.537 308.567 167.447 307.472 165.748C306.377 164.049 304.338 162.999 302.128 163L249.409 163.005C247.221 163.006 245.198 164.035 244.096 165.708L174.903 270.763C173.792 272.449 173.785 274.531 174.882 276.223C175.979 277.915 178.014 278.958 180.217 278.958H241.53L223.672 342.229C222.973 344.704 224.308 347.278 226.884 348.422C227.762 348.812 228.705 349 229.638 349C231.441 349 233.208 348.298 234.408 346.995L336.551 236.097C338.052 234.467 338.36 232.216 337.341 230.315Z" fill="black"/>
</g>
<defs>
<clipPath id="clip0_121_191">
<rect width="210" height="186" fill="white" transform="translate(151 163)"/>
</clipPath>
</defs>
</svg>
