<svg id="Icons" height="512" viewBox="0 0 60 60" width="512" xmlns="http://www.w3.org/2000/svg"><path d="m22 4.556h4v14.667h-4z" fill="#a5a5a4"/><path d="m34 4.778h4v14.444h-4z" fill="#a5a5a4"/><path d="m10 48.778h-4v-9.778a2 2 0 0 1 4 0z" fill="#90bae1"/><path d="m54 48.778h-4v-9.778a2 2 0 0 1 4 0z" fill="#90bae1"/><path d="m11.889 3h36v4h-36z" fill="#3b97d3"/><path d="m43.065 34.783-27.795-10.923a2 2 0 1 1 1.46-3.72l28 11z" fill="#7f8284"/><path d="m9.821 47.278 33.309-16.078a2 2 0 1 1 1.74 3.6l-24.933 12.036z" fill="#a5a5a4"/><path d="m17.224 34.669 27.5-10.809a2 2 0 1 0 -1.46-3.72l-28 11z" fill="#a5a5a4"/><path d="m40.123 46.845-24.993-12.045a2 2 0 0 1 1.74-3.6l32.375 15.645z" fill="#7f8284"/><path d="m15 17.556h-4v-14.556a2 2 0 0 1 4 0z" fill="#a5a5a4"/><path d="m49 16.684h-4v-13.684a2 2 0 0 1 4 0z" fill="#a5a5a4"/><path d="m49 54h2a3 3 0 0 0 3-3v-6h-48v6a3 3 0 0 0 3 3z" fill="#3b97d3"/><path d="m11 16h38a0 0 0 0 1 0 0v2a2 2 0 0 1 -2 2h-34a2 2 0 0 1 -2-2v-2a0 0 0 0 1 0 0z" fill="#3b97d3"/><circle cx="16" cy="54" fill="#3f5c6c" r="5"/><circle cx="16" cy="54" fill="#35495e" r="1"/><circle cx="44" cy="54" fill="#3f5c6c" r="5"/><circle cx="44" cy="54" fill="#35495e" r="1"/></svg>