<?xml version="1.0" encoding="UTF-8" standalone="no"?>
<!-- Created with Inkscape (http://www.inkscape.org/) -->

<svg
   version="1.1"
   id="svg1503"
   xml:space="preserve"
   width="682.66669"
   height="682.66669"
   viewBox="0 0 682.66669 682.66669"
   xmlns="http://www.w3.org/2000/svg"
   xmlns:svg="http://www.w3.org/2000/svg"><defs
     id="defs1507"><clipPath
       clipPathUnits="userSpaceOnUse"
       id="clipPath1517"><path
         d="M 0,512 H 512 V 0 H 0 Z"
         id="path1515" /></clipPath></defs><g
     id="g1509"
     transform="matrix(1.3333333,0,0,-1.3333333,0,682.66667)"><g
       id="g1511"><g
         id="g1513"
         clip-path="url(#clipPath1517)"><g
           id="g1519"
           transform="translate(497,249.95)"><path
             d="m 0,0 v -204.97 c 0,-16.56 -13.42,-29.98 -29.98,-29.98 h -204.97 c -16.56,0 -29.99,13.42 -29.99,29.98 v 187.08 h 17.89 c 16.56,0 29.99,13.43 29.99,29.99 v 17.89 h 76.52 c 21.61,54.61 74.31,59.96 74.31,59.96 V 29.99 h 36.25 C -13.42,29.99 0,16.56 0,0 Z"
             style="fill:none;stroke:#000000;stroke-width:30;stroke-linecap:round;stroke-linejoin:round;stroke-miterlimit:10;stroke-dasharray:none;stroke-opacity:1"
             id="path1521" /></g><g
           id="g1523"
           transform="translate(279.94,467.02)"><path
             d="m 0,0 v -204.97 c 0,-16.56 -13.43,-29.99 -29.99,-29.99 h -94.41 c -21.61,-54.61 -74.31,-59.96 -74.31,-59.96 v 59.96 h -36.25 c -16.56,0 -29.98,13.43 -29.98,29.99 V 0 c 0,16.56 13.42,29.98 29.98,29.98 H -29.99 C -13.43,29.98 0,16.56 0,0 Z"
             style="fill:none;stroke:#000000;stroke-width:30;stroke-linecap:round;stroke-linejoin:round;stroke-miterlimit:10;stroke-dasharray:none;stroke-opacity:1"
             id="path1525" /></g><g
           id="g1527"
           transform="translate(87.255,400.66)"><path
             d="M 0,0 H 120.425"
             style="fill:none;stroke:#000000;stroke-width:30;stroke-linecap:round;stroke-linejoin:round;stroke-miterlimit:10;stroke-dasharray:none;stroke-opacity:1"
             id="path1529" /></g><g
           id="g1531"
           transform="translate(147.4675,400.66)"><path
             d="M 0,0 V 24.085"
             style="fill:none;stroke:#000000;stroke-width:30;stroke-linecap:round;stroke-linejoin:round;stroke-miterlimit:10;stroke-dasharray:none;stroke-opacity:1"
             id="path1533" /></g><g
           id="g1535"
           transform="translate(117.3613,400.66)"><path
             d="M 0,0 C 0,-96.34 90.319,-96.34 90.319,-96.34"
             style="fill:none;stroke:#000000;stroke-width:30;stroke-linecap:round;stroke-linejoin:round;stroke-miterlimit:10;stroke-dasharray:none;stroke-opacity:1"
             id="path1537" /></g><g
           id="g1539"
           transform="translate(177.5738,400.66)"><path
             d="M 0,0 C 0,-96.34 -90.319,-96.34 -90.319,-96.34"
             style="fill:none;stroke:#000000;stroke-width:30;stroke-linecap:round;stroke-linejoin:round;stroke-miterlimit:10;stroke-dasharray:none;stroke-opacity:1"
             id="path1541" /></g><g
           id="g1543"
           transform="translate(304.3199,87.255)"><path
             d="M 0,0 60.213,120.425 120.425,0"
             style="fill:none;stroke:#000000;stroke-width:30;stroke-linecap:round;stroke-linejoin:round;stroke-miterlimit:10;stroke-dasharray:none;stroke-opacity:1"
             id="path1545" /></g><g
           id="g1547"
           transform="translate(319.373,117.3613)"><path
             d="M 0,0 H 90.319"
             style="fill:none;stroke:#000000;stroke-width:30;stroke-linecap:butt;stroke-linejoin:round;stroke-miterlimit:10;stroke-dasharray:none;stroke-opacity:1"
             id="path1549" /></g><g
           id="g1551"
           transform="translate(361.222,466.8937)"><path
             d="m 0,0 h 15.053 c 66.509,0 120.425,-53.916 120.425,-120.425 v 0"
             style="fill:none;stroke:#000000;stroke-width:30;stroke-linecap:round;stroke-linejoin:round;stroke-miterlimit:10;stroke-dasharray:none;stroke-opacity:1"
             id="path1553" /></g><g
           id="g1555"
           transform="translate(376.2751,436.7875)"><path
             d="M 0,0 -30.106,30.106 0,60.213"
             style="fill:none;stroke:#000000;stroke-width:30;stroke-linecap:round;stroke-linejoin:round;stroke-miterlimit:10;stroke-dasharray:none;stroke-opacity:1"
             id="path1557" /></g><g
           id="g1559"
           transform="translate(150.4782,45.4061)"><path
             d="m 0,0 h -15.053 c -66.509,0 -120.425,53.916 -120.425,120.425 v 0"
             style="fill:none;stroke:#000000;stroke-width:30;stroke-linecap:round;stroke-linejoin:round;stroke-miterlimit:10;stroke-dasharray:none;stroke-opacity:1"
             id="path1561" /></g><g
           id="g1563"
           transform="translate(135.425,75.5123)"><path
             d="M 0,0 30.106,-30.106 0,-60.213"
             style="fill:none;stroke:#000000;stroke-width:30;stroke-linecap:round;stroke-linejoin:round;stroke-miterlimit:10;stroke-dasharray:none;stroke-opacity:1"
             id="path1565" /></g></g></g></g></svg>
