<svg version="1.1" id="Layer_1" xmlns="http://www.w3.org/2000/svg" xmlns:xlink="http://www.w3.org/1999/xlink" x="0px" y="0px" viewBox="0 0 512 512" style="enable-background:new 0 0 512 512;" xml:space="preserve">
<g>
	<g>
		<path style="fill:none;stroke:#000000;stroke-width:20;stroke-linecap:round;stroke-linejoin:round;stroke-miterlimit:10;" d="&#10;&#9;&#9;&#9;M498.7,115.834c0,89.068-105.935,152.085-105.935,152.085S286.83,205.426,286.83,115.834C286.83,57.383,334.258,10,392.765,10&#10;&#9;&#9;&#9;S498.7,57.383,498.7,115.834z"/>
		
			<ellipse style="fill:none;stroke:#000000;stroke-width:20;stroke-linecap:round;stroke-linejoin:round;stroke-miterlimit:10;" cx="392.765" cy="115.834" rx="49.412" ry="49.365"/>
		
			<ellipse style="fill:none;stroke:#000000;stroke-width:20;stroke-linecap:round;stroke-linejoin:round;stroke-miterlimit:10;" cx="392.765" cy="292.286" rx="24.391" ry="24.367"/>
	</g>
	<g>
		<g>
			<path style="fill:none;stroke:#000000;stroke-width:20;stroke-linecap:round;stroke-linejoin:round;stroke-miterlimit:10;" d="&#10;&#9;&#9;&#9;&#9;M258.355,269.727c0,103.018-122.527,175.905-122.527,175.905S13.3,373.351,13.3,269.727c0-67.605,54.857-122.41,122.528-122.41&#10;&#9;&#9;&#9;&#9;S258.355,202.122,258.355,269.727z"/>
			
				<ellipse style="fill:none;stroke:#000000;stroke-width:20;stroke-linecap:round;stroke-linejoin:round;stroke-miterlimit:10;" cx="135.827" cy="269.727" rx="70.969" ry="70.901"/>
		</g>
		
			<ellipse style="fill:none;stroke:#000000;stroke-width:20;stroke-linecap:round;stroke-linejoin:round;stroke-miterlimit:10;" cx="135.827" cy="473.816" rx="28.211" ry="28.184"/>
	</g>
	<path style="fill:none;stroke:#000000;stroke-width:20;stroke-linecap:round;stroke-linejoin:round;stroke-miterlimit:10;" d="&#10;&#9;&#9;M392.765,358.74c0,13.349-10.832,24.171-24.194,24.171h-36.274c-13.215,0-23.929,10.703-23.929,23.906v0&#10;&#9;&#9;c0,13.203,10.713,23.906,23.929,23.906h109.453c14.294,0,25.881,11.576,25.881,25.856v0c0,14.28-11.587,25.856-25.881,25.856&#10;&#9;&#9;H207.119"/>
</g>
<g>
</g>
<g>
</g>
<g>
</g>
<g>
</g>
<g>
</g>
<g>
</g>
<g>
</g>
<g>
</g>
<g>
</g>
<g>
</g>
<g>
</g>
<g>
</g>
<g>
</g>
<g>
</g>
<g>
</g>
</svg>