<svg id="Layer_1" height="512" viewBox="0 0 512 512" width="512" xmlns="http://www.w3.org/2000/svg" data-name="Layer 1"><path d="m99.372 408.83v27.78c0 22.904-18.765 41.669-41.698 41.669s-41.669-18.765-41.669-41.669v-27.78c0-22.932 18.765-41.698 41.669-41.698s41.698 18.765 41.698 41.698zm90.539-152.816c-22.932 0-41.698 18.737-41.698 41.669v138.926c0 22.904 18.765 41.669 41.698 41.669s41.669-18.765 41.669-41.669v-138.926c0-22.932-18.765-41.669-41.669-41.669zm132.208-111.146c-22.932 0-41.669 18.737-41.669 41.669v250.072c0 22.904 18.737 41.669 41.669 41.669s41.669-18.765 41.669-41.669v-250.072c0-22.932-18.737-41.669-41.669-41.669zm132.207-111.147c-22.932 0-41.669 18.765-41.669 41.669v361.219c0 22.904 18.737 41.669 41.669 41.669s41.669-18.765 41.669-41.669v-361.218c0-22.904-18.737-41.669-41.669-41.669z" fill-rule="evenodd"/></svg>