<?xml version="1.0" encoding="UTF-8"?>
<svg xmlns="http://www.w3.org/2000/svg" id="OUTLINE" viewBox="0 0 64 64" width="512" height="512"><g id="_20-Hand_trolley" data-name="20-Hand trolley"><path d="M61,45H59V13a1,1,0,0,0-1-1H15V3a1,1,0,0,0-1-1H5A3,3,0,0,0,5,8H9V50a1,1,0,0,0,1,1h5.69A6,6,0,1,0,22.31,51H47.69A6,6,0,1,0,54.31,51H61a1,1,0,0,0,1-1V46A1,1,0,0,0,61,45ZM19,60a4,4,0,1,1,4-4A4.0042,4.0042,0,0,1,19,60Zm32,0a4,4,0,1,1,4-4A4.0042,4.0042,0,0,1,51,60ZM37,45V32h7v4.7129a1.0006,1.0006,0,0,0,1.5186.8555L47,36.67l1.4814.8985A1.0006,1.0006,0,0,0,50,36.7129V32h7V45ZM15,32h7v4.7129a1.0006,1.0006,0,0,0,1.5186.8555L25,36.67l1.4814.8985A1.0006,1.0006,0,0,0,28,36.7129V32h7V45H15Zm9,0h2v2.9365l-.4814-.292a1,1,0,0,0-1.0372,0L24,34.9365Zm22,0h2v2.9365l-.4814-.292a1,1,0,0,0-1.0372,0L46,34.9365Zm11-2H37V14h7v4.7129a1.0006,1.0006,0,0,0,1.5186.8555L47,18.67l1.4814.8985A1.0006,1.0006,0,0,0,50,18.7129V14h7ZM46,14h2v2.9365l-.4814-.292a1,1,0,0,0-1.0372,0L46,16.9365ZM24,14h2v2.9365l-.4814-.292a1,1,0,0,0-1.0372,0L24,16.9365Zm-2,0v4.7129a1.0006,1.0006,0,0,0,1.5186.8555L25,18.67l1.4814.8985A1.0006,1.0006,0,0,0,28,18.7129V14h7V30H15V14ZM4,5A1.0009,1.0009,0,0,1,5,4h8V6H5A1.0009,1.0009,0,0,1,4,5Zm9,3V45H11V8ZM60,49H11V47H60Zm-9,4a3,3,0,1,0,3,3A3.0033,3.0033,0,0,0,51,53Zm0,4a1,1,0,1,1,1-1A1.0009,1.0009,0,0,1,51,57ZM19,53a3,3,0,1,0,3,3A3.0033,3.0033,0,0,0,19,53Zm0,4a1,1,0,1,1,1-1A1.0009,1.0009,0,0,1,19,57Z"/></g></svg>
