<svg enable-background="new 0 0 520 520" height="512" viewBox="0 0 520 520" width="512" xmlns="http://www.w3.org/2000/svg"><g id="_x39_78_x2C__Earth_x2C__Education_x2C__Geography_x2C__Globe_x2C__Learn"><path d="m446.319 93.331c-47.404-52.958-115.314-83.331-186.319-83.331-71 0-138.908 30.37-186.311 83.322-.002.003-.005.006-.008.009-84.838 94.778-84.972 238.411 0 333.339.003.003.006.006.008.009 47.404 52.951 115.311 83.321 186.311 83.321 71.005 0 138.915-30.373 186.319-83.33 84.839-94.779 84.973-238.412 0-333.339zm-9.782 314.08c-19.805-10.178-42.003-17.981-63.295-23.508 10.099-34.457 15.838-73.336 16.649-113.903h99.891c-2.183 50.45-20.846 98.651-53.245 137.411zm-353.075 0c-32.397-38.761-51.06-86.961-53.244-137.411h99.891c.812 40.567 6.551 79.446 16.649 113.902-21.539 5.61-43.161 13.216-63.296 23.509zm0-294.823c19.931 10.212 41.797 17.915 63.295 23.509-10.097 34.457-15.837 73.335-16.648 113.903h-99.891c2.184-50.451 20.847-98.651 53.244-137.412zm283.6 4.483c-10.125-28.227-25.195-57.709-46.279-78.859 38.161 10.482 73.313 30.712 101.699 59.027-18.053 8.712-36.2 14.818-55.42 19.832zm-97.062 12.813v-98.897c24.42 4.785 47.521 27.003 65.908 63.78 4.206 8.412 8.047 17.366 11.515 26.778-24.638 4.944-50.669 7.773-77.423 8.339zm-20 0c-25.575-.541-51.949-3.204-77.422-8.339 3.467-9.413 7.308-18.367 11.514-26.778 18.388-36.777 41.489-58.996 65.908-63.78zm0 20.004v100.112h-99.889c.811-39.131 6.374-76.483 16.137-109.36 26.381 5.449 54.644 8.656 83.752 9.248zm0 120.112v100.112c-29.964.609-58.271 3.97-83.752 9.248-9.763-32.877-15.326-70.229-16.137-109.36zm0 120.116v98.897c-24.419-4.785-47.52-27.003-65.908-63.78-4.206-8.412-8.047-17.366-11.514-26.778 23.927-4.816 50.087-7.761 77.422-8.339zm20 0c25.644.542 51.974 3.212 77.423 8.339-3.468 9.412-7.309 18.366-11.515 26.778-18.388 36.777-41.488 58.995-65.908 63.78zm0-20.004v-100.112h99.89c-.812 39.131-6.374 76.483-16.138 109.36-25.258-5.247-53.889-8.64-83.752-9.248zm0-120.112v-100.112c28.219-.574 56.549-3.626 83.753-9.248 9.763 32.876 15.325 70.229 16.137 109.36zm-117.061-132.93c-18.639-4.751-38.01-11.4-55.42-19.832 28.387-28.314 63.538-48.544 101.7-59.027-21.117 21.183-36.181 50.703-46.28 78.859zm0 285.86c10.096 28.149 25.161 57.676 46.279 78.859-38.162-10.482-73.313-30.713-101.7-59.027 18.072-8.74 36.138-14.765 55.421-19.832zm214.122 0c18.354 4.589 38.247 11.521 55.422 19.832-28.387 28.314-63.539 48.545-101.7 59.027 21.116-21.184 36.183-50.709 46.278-78.859zm22.831-152.93c-.812-40.568-6.551-79.446-16.649-113.903 21.521-5.596 43.435-13.325 63.295-23.509 32.398 38.76 51.062 86.961 53.245 137.412z"/></g></svg>