<svg height="511pt" viewBox="0 0 511 511.99984" width="511pt" xmlns="http://www.w3.org/2000/svg"><path d="m10.5 312.085938c0-69.535157 57.699219-125.59375 127.832031-122.90625 65.054688 2.492187 117.25 56.0625 118.15625 121.15625.417969 30.125-10 57.804687-27.601562 79.398437h.007812l-82.785156 106.109375c-6.402344 8.207031-18.820313 8.210938-25.226563 0l-82.324218-105.46875h.070312c-17.570312-21.269531-28.128906-48.546875-28.128906-78.289062zm0 0" fill="#ffb954"/><path d="m200.132812 312.085938c0 36.800781-29.832031 66.632812-66.632812 66.632812s-66.636719-29.832031-66.636719-66.632812c0-36.800782 29.835938-66.636719 66.636719-66.636719s66.632812 29.835937 66.632812 66.636719zm0 0" fill="#fff"/><path d="m318.59375 180.515625c0-51.214844 41.871094-92.652344 93.25-91.941406 50.285156.691406 91 42.304687 90.652344 92.59375-.152344 21.761719-7.867188 41.722656-20.640625 57.398437h.003906l-63.433594 81.304688c-4.003906 5.132812-11.761719 5.132812-15.765625.003906l-63.09375-80.828125h.054688c-13.136719-15.902344-21.027344-36.292969-21.027344-58.53125zm0 0" fill="#ff5d5d"/><path d="m458.359375 180.515625c0 26.410156-21.40625 47.816406-47.816406 47.816406-26.40625 0-47.8125-21.40625-47.8125-47.816406 0-26.40625 21.40625-47.816406 47.8125-47.816406 26.410156 0 47.816406 21.410156 47.816406 47.816406zm0 0" fill="#fff"/><path d="m178.828125 60.851562c0-29.363281 24.890625-52.917968 54.726563-50.707031 25.128906 1.863281 45.316406 22.324219 46.871093 47.480469.828125 13.421875-3.554687 25.804688-11.3125 35.328125l-31.554687 40.445313c-4.003906 5.132812-11.761719 5.132812-15.765625.003906l-31.367188-40.183594h.03125c-7.265625-8.792969-11.628906-20.070312-11.628906-32.367188zm0 0" fill="#c9f3ff"/><path d="m228.625 219.300781c-23.949219-24.566406-55.878906-38.8125-89.910156-40.113281-36.535156-1.40625-71.144532 11.761719-97.429688 37.058594-26.300781 25.3125-40.785156 59.347656-40.785156 95.839844 0 30.46875 10.539062 60.171874 29.699219 83.777343.148437.226563.308593.449219.476562.664063l14.539063 18.628906c3.398437 4.355469 9.683594 5.128906 14.035156 1.730469 4.355469-3.398438 5.128906-9.683594 1.730469-14.039063l-13.859375-17.753906c-.234375-.378906-.496094-.738281-.78125-1.089844-16.664063-20.167968-25.839844-45.710937-25.839844-71.917968 0-31.003907 12.308594-59.921876 34.652344-81.429688 22.332031-21.492188 51.71875-32.65625 82.796875-31.484375 60.027343 2.296875 107.703125 51.1875 108.539062 111.300781.367188 26.527344-8.636719 52.433594-25.355469 72.945313-.125.152343-.242187.304687-.355468.464843l-82.550782 105.808594c-1.566406 2.007813-3.636718 2.308594-4.730468 2.308594s-3.160156-.300781-4.730469-2.308594l-22.773437-29.175781c-3.398438-4.355469-9.683594-5.128906-14.035157-1.730469-4.355469 3.398438-5.128906 9.683594-1.730469 14.035156l22.773438 29.175782c4.964844 6.359375 12.433594 10.003906 20.5 10.003906 8.0625 0 15.535156-3.648438 20.496094-10.007812l82.785156-106.105469c.035156-.046875.066406-.09375.101562-.136719 19.527344-24.101562 30.035157-54.46875 29.605469-85.554688-.476562-34.058593-13.921875-66.339843-37.863281-90.894531zm0 0"/><path d="m77.597656 430.398438c-2.628906 0-5.199218 1.0625-7.066406 2.933593-1.859375 1.855469-2.933594 4.4375-2.933594 7.066407 0 2.632812 1.070313 5.210937 2.933594 7.070312 1.867188 1.859375 4.4375 2.929688 7.066406 2.929688 2.644532 0 5.210938-1.066407 7.070313-2.929688 1.871093-1.859375 2.941406-4.4375 2.941406-7.070312 0-2.628907-1.070313-5.210938-2.941406-7.066407-1.859375-1.871093-4.4375-2.933593-7.070313-2.933593zm0 0"/><path d="m133.5 388.71875c42.257812 0 76.632812-34.378906 76.632812-76.632812 0-42.257813-34.375-76.636719-76.632812-76.636719s-76.636719 34.378906-76.636719 76.636719c0 42.253906 34.378907 76.632812 76.636719 76.632812zm0-133.269531c31.226562 0 56.632812 25.40625 56.632812 56.636719 0 31.226562-25.40625 56.632812-56.632812 56.632812-31.230469 0-56.636719-25.40625-56.636719-56.632812 0-31.230469 25.40625-56.636719 56.636719-56.636719zm0 0"/><path d="m411.980469 78.574219c-27.492188-.382813-53.449219 10.042969-73.023438 29.351562-19.582031 19.3125-30.363281 45.09375-30.363281 72.589844 0 23.316406 8.050781 46.050781 22.6875 64.128906.128906.1875.261719.371094.402344.554688l63.09375 80.828125c3.816406 4.890625 9.5625 7.695312 15.765625 7.695312 6.207031 0 11.953125-2.808594 15.769531-7.699218l63.4375-81.304688c.023438-.035156.050781-.070312.078125-.105469 14.460937-17.867187 22.507813-40.359375 22.667969-63.375.386718-55.839843-44.703125-101.894531-100.515625-102.664062zm62.125 153.671875c-.117188.140625-.226563.285156-.332031.429687l-63.230469 81.046875-62.503907-80.078125c-.214843-.332031-.453124-.65625-.707031-.96875-12.085937-14.625-18.738281-33.148437-18.738281-52.160156 0-22.101563 8.667969-42.824219 24.40625-58.347656 15.738281-15.523438 36.625-23.878907 58.707031-23.597657 44.859375.621094 81.101563 37.644532 80.789063 82.527344-.132813 18.863282-6.492188 36.550782-18.390625 51.148438zm0 0"/><path d="m410.542969 122.699219c-31.878907 0-57.8125 25.9375-57.8125 57.816406s25.933593 57.816406 57.8125 57.816406c31.878906 0 57.816406-25.9375 57.816406-57.816406s-25.933594-57.816406-57.816406-57.816406zm0 95.632812c-20.851563 0-37.8125-16.964843-37.8125-37.816406s16.964843-37.8125 37.8125-37.8125c20.851562 0 37.816406 16.960937 37.816406 37.8125s-16.964844 37.816406-37.816406 37.816406zm0 0"/><path d="m182.542969 99.371094 31.367187 40.183594c3.816406 4.890624 9.5625 7.691406 15.765625 7.691406s11.949219-2.804688 15.769531-7.695313l31.554688-40.445312c.011719-.015625.019531-.03125.035156-.046875 9.566406-11.847656 14.316406-26.769532 13.371094-42.050782-1.863281-30.167968-25.984375-54.601562-56.113281-56.832031-17.148438-1.269531-33.476563 4.441407-46.015625 16.078125-12.359375 11.480469-19.449219 27.734375-19.449219 44.597656 0 13.863282 4.769531 27.378907 13.441406 38.148438.085938.125.179688.25.273438.371094zm19.34375-68.460938c8.414062-7.8125 19.398437-11.640625 30.929687-10.792968 20.199219 1.5 36.378906 17.886718 37.628906 38.125.636719 10.335937-2.589843 20.421874-9.085937 28.390624-.097656.121094-.191406.242188-.285156.367188l-31.398438 40.246094-30.933593-39.628906c-.179688-.265626-.371094-.519532-.578126-.769532-6.019531-7.289062-9.335937-16.519531-9.335937-25.996094 0-11.488281 4.636719-22.121093 13.058594-29.941406zm0 0"/><path d="m279.410156 399.628906-4.246094 2.636719c-4.691406 2.914063-6.132812 9.082031-3.21875 13.773437 1.894532 3.046876 5.160157 4.722657 8.503907 4.722657 1.800781 0 3.625-.484375 5.265625-1.503907l4.25-2.636718c4.6875-2.914063 6.132812-9.082032 3.21875-13.773438-2.914063-4.691406-9.078125-6.128906-13.773438-3.21875zm0 0"/><path d="m355.871094 352.152344-4.25 2.640625c-4.6875 2.910156-6.132813 9.078125-3.21875 13.769531 1.894531 3.050781 5.160156 4.726562 8.503906 4.726562 1.800781 0 3.625-.488281 5.265625-1.507812l4.25-2.636719c4.691406-2.914062 6.132813-9.078125 3.21875-13.769531-2.910156-4.691406-9.074219-6.136719-13.769531-3.222656zm0 0"/><path d="m241.183594 423.367188-4.25 2.636718c-4.691406 2.914063-6.132813 9.078125-3.21875 13.769532 1.894531 3.050781 5.160156 4.726562 8.503906 4.726562 1.800781 0 3.625-.484375 5.265625-1.503906l4.25-2.640625c4.691406-2.910157 6.132813-9.074219 3.21875-13.769531-2.914063-4.691407-9.074219-6.132813-13.769531-3.21875zm0 0"/><path d="m317.640625 375.890625-4.246094 2.636719c-4.691406 2.914062-6.132812 9.078125-3.21875 13.773437 1.890625 3.046875 5.160157 4.726563 8.503907 4.726563 1.800781 0 3.621093-.488282 5.265624-1.507813l4.246094-2.636719c4.691406-2.914062 6.136719-9.078124 3.222656-13.773437-2.914062-4.691406-9.078124-6.132813-13.773437-3.21875zm0 0"/><path d="m300.082031 201.726562c-3.847656-3.96875-10.179687-4.066406-14.144531-.21875-3.964844 3.847657-4.058594 10.175782-.214844 14.140626l.566406.582031c1.960938 2.023437 4.566407 3.039062 7.179688 3.039062 2.507812 0 5.015625-.9375 6.960938-2.820312 3.964843-3.847657 4.058593-10.175781.214843-14.140625zm0 0"/><path d="m254.609375 169.207031c-3.964844 3.847657-4.0625 10.179688-.214844 14.140625l3.480469 3.589844c1.960938 2.019531 4.570312 3.039062 7.179688 3.039062 2.507812 0 5.019531-.941406 6.960937-2.824218 3.964844-3.84375 4.0625-10.175782.214844-14.140625l-3.480469-3.589844c-3.84375-3.964844-10.175781-4.058594-14.140625-.214844zm0 0"/></svg>