<svg width="512" height="512" viewBox="0 0 512 512" fill="none" xmlns="http://www.w3.org/2000/svg">
<g clip-path="url(#clip0_123_281)">
<path opacity="0.15" d="M340.631 105.045C328.968 105.034 317.785 100.396 309.537 92.1487C301.29 83.9014 296.652 72.7192 296.641 61.056V0H100.076C84.854 -1.04533e-06 70.2554 6.04542 59.4898 16.8069C48.7244 27.5684 42.6736 42.1649 42.668 57.3867V403.456C42.6849 418.671 48.7407 433.257 59.5049 444.009C70.2693 454.761 84.8613 460.8 100.076 460.8H336.023C343.564 460.802 351.031 459.319 357.998 456.435C364.966 453.553 371.297 449.325 376.631 443.994C381.964 438.662 386.194 432.333 389.081 425.365C391.967 418.4 393.452 410.933 393.452 403.392V105.045H340.631Z" fill="#A140FF"/>
<path d="M393.451 105.045H340.63C328.967 105.034 317.784 100.396 309.537 92.1487C301.289 83.9014 296.651 72.7192 296.641 61.056V0L393.451 105.045Z" fill="#A140FF"/>
<path d="M435.072 363.946H168.32C149.397 363.946 134.059 379.285 134.059 398.208V477.738C134.059 496.661 149.397 512 168.32 512H435.072C453.994 512 469.333 496.661 469.333 477.738V398.208C469.333 379.285 453.994 363.946 435.072 363.946Z" fill="#A140FF"/>
<path d="M401.371 475.768C393.066 475.768 386.92 473.793 382.931 469.84C378.978 465.85 377 459.702 377 451.397V426.264C377 417.887 378.995 411.741 382.984 407.824C386.973 403.871 393.102 401.929 401.371 402.002H414.427C422.769 402.002 428.917 403.98 432.87 407.933C436.823 411.886 438.798 418.032 438.798 426.373V451.397C438.798 459.702 436.823 465.85 432.87 469.84C428.917 473.793 422.769 475.768 414.427 475.768H401.371ZM401.371 466.629H414.427C418.308 466.629 421.354 466.177 423.566 465.27C425.779 464.327 427.338 462.749 428.245 460.536C429.188 458.324 429.659 455.278 429.659 451.397V426.373C429.659 422.529 429.188 419.502 428.245 417.289C427.338 415.077 425.779 413.499 423.566 412.556C421.354 411.613 418.308 411.141 414.427 411.141H401.371C397.527 411.105 394.5 411.54 392.287 412.447C390.075 413.353 388.497 414.913 387.554 417.125C386.611 419.337 386.139 422.384 386.139 426.264V451.397C386.139 455.278 386.594 458.324 387.5 460.536C388.443 462.749 390.02 464.327 392.232 465.27C394.444 466.177 397.491 466.629 401.371 466.629Z" fill="white"/>
<path d="M325.57 475.766C322.523 475.766 321 474.243 321 471.197V406.57C321 403.523 322.523 402 325.57 402H364.629C367.675 402 369.198 403.523 369.198 406.57C369.198 409.616 367.675 411.139 364.629 411.139H330.139V433.987H351.79C354.837 433.987 356.36 435.51 356.36 438.557C356.36 441.603 354.837 443.126 351.79 443.126H330.139V466.627H364.629C367.675 466.627 369.198 468.15 369.198 471.197C369.198 474.243 367.675 475.766 364.629 475.766H325.57Z" fill="white"/>
<path d="M259.551 474.46C256.517 474.46 255 472.943 255 469.91V405.551C255 402.517 256.517 401 259.551 401H285.663C295.089 401 302.023 403.239 306.466 407.718C310.944 412.16 313.183 419.094 313.183 428.521V446.94C313.183 456.366 310.961 463.317 306.519 467.796C302.113 472.238 295.161 474.46 285.663 474.46H259.551ZM264.101 465.359H285.663C290.286 465.359 293.933 464.798 296.606 463.679C299.315 462.523 301.229 460.609 302.348 457.936C303.504 455.227 304.082 451.563 304.082 446.94V428.521C304.082 423.934 303.504 420.303 302.348 417.63C301.229 414.922 299.315 412.991 296.606 411.835C293.933 410.679 290.286 410.101 285.663 410.101H264.101V465.359Z" fill="white"/>
<path d="M242.551 475.352C240.998 475.352 239.842 474.991 239.083 474.268C238.361 473.51 238 472.354 238 470.801V406.551C238 404.962 238.361 403.806 239.083 403.083C239.842 402.361 240.998 402 242.551 402C244.14 402 245.295 402.361 246.018 403.083C246.74 403.806 247.101 404.962 247.101 406.551V470.801C247.101 472.354 246.74 473.51 246.018 474.268C245.295 474.991 244.14 475.352 242.551 475.352Z" fill="white"/>
<path d="M196.891 475.851C195.005 475.851 193.518 474.654 192.43 472.261L165.556 408.613C165.012 407.343 164.867 406.219 165.121 405.24C165.375 404.224 166.209 403.39 167.624 402.737C170.597 401.251 172.701 402.012 173.934 405.022L199.338 465.189H196.182L220.936 405.022C222.132 402.048 224.236 401.287 227.246 402.737C228.515 403.39 229.294 404.224 229.584 405.24C229.91 406.219 229.821 407.343 229.313 408.613L202.222 472.261C201.098 474.654 199.466 475.851 197.326 475.851H196.891Z" fill="white"/>
<path d="M235.135 225.194L214.719 213.397C213.663 212.792 212.467 212.475 211.25 212.478C210.033 212.48 208.837 212.802 207.784 213.41C206.73 214.02 205.854 214.895 205.244 215.948C204.635 217 204.312 218.195 204.309 219.413V243.008C204.312 244.224 204.635 245.42 205.244 246.472C205.854 247.526 206.73 248.401 207.784 249.011C208.837 249.619 210.033 249.941 211.25 249.943C212.467 249.945 213.663 249.627 214.719 249.024L235.135 237.226C236.189 236.614 237.064 235.737 237.672 234.681C238.28 233.625 238.601 232.428 238.601 231.21C238.601 229.992 238.28 228.795 237.672 227.739C237.064 226.683 236.189 225.807 235.135 225.194Z" fill="#A140FF"/>
<path d="M297.174 281.408V179.627C297.168 179.133 297.119 178.64 297.025 178.155C297.038 178.013 297.038 177.87 297.025 177.728C297.025 177.387 296.833 177.067 296.726 176.747L296.534 176.32C296.396 176.008 296.231 175.708 296.044 175.424L295.852 175.083C295.577 174.702 295.278 174.338 294.956 173.995L294.806 173.867C294.516 173.593 294.209 173.337 293.889 173.099L293.505 172.864C293.228 172.694 292.929 172.544 292.63 172.395L292.204 172.203C291.862 172.074 291.513 171.967 291.158 171.883H290.817C290.341 171.78 289.853 171.729 289.366 171.734H145.665C143.69 171.914 141.854 172.826 140.516 174.29C139.178 175.754 138.435 177.665 138.433 179.648V180.011V281.728C138.39 283.036 138.805 284.318 139.606 285.355C140.311 286.537 141.31 287.516 142.507 288.197C143.704 288.877 145.056 289.236 146.433 289.238H289.366C291.427 289.195 293.39 288.354 294.847 286.895C296.302 285.436 297.136 283.469 297.174 281.408ZM151.062 190.891C148.706 190.891 146.796 188.981 146.796 186.624V179.712C146.796 177.356 148.706 175.446 151.062 175.446H155.094C157.45 175.446 159.361 177.356 159.361 179.712V186.624C159.361 188.981 157.45 190.891 155.094 190.891H151.062ZM172.268 190.891C169.911 190.891 168.001 188.981 168.001 186.624V179.712C168.001 177.356 169.911 175.446 172.268 175.446H176.299C178.656 175.446 180.566 177.356 180.566 179.712V186.624C180.566 188.981 178.656 190.891 176.299 190.891H172.268ZM193.473 190.891C191.116 190.891 189.206 188.981 189.206 186.624V179.712C189.206 177.356 191.116 175.446 193.473 175.446H197.505C199.862 175.446 201.772 177.356 201.772 179.712V186.624C201.772 188.981 199.862 190.891 197.505 190.891H193.473ZM214.678 190.891C212.321 190.891 210.411 188.981 210.411 186.624V179.712C210.411 177.356 212.321 175.446 214.678 175.446H218.71C221.067 175.446 222.977 177.356 222.977 179.712V186.624C222.977 188.981 221.067 190.891 218.71 190.891H214.678ZM235.884 190.891C233.527 190.891 231.617 188.981 231.617 186.624V179.712C231.617 177.356 233.527 175.446 235.884 175.446H239.916C242.272 175.446 244.182 177.356 244.182 179.712V186.624C244.182 188.981 242.272 190.891 239.916 190.891H235.884ZM257.089 190.891C254.733 190.891 252.822 188.981 252.822 186.624V179.712C252.822 177.356 254.733 175.446 257.089 175.446H261.121C263.476 175.446 265.388 177.356 265.388 179.712V186.624C265.388 188.981 263.476 190.891 261.121 190.891H257.089ZM278.294 190.891C275.937 190.891 274.028 188.981 274.028 186.624V179.712C274.028 177.356 275.937 175.446 278.294 175.446H282.326C284.684 175.446 286.593 177.356 286.593 179.712V186.624C286.593 188.981 284.684 190.891 282.326 190.891H278.294ZM148.161 265.792C145.804 265.792 143.894 263.883 143.894 261.526V199.339C143.894 196.983 145.804 195.072 148.161 195.072H287.297C289.652 195.072 291.564 196.983 291.564 199.339V261.526C291.564 263.883 289.652 265.792 287.297 265.792H148.161ZM151.041 285.398C148.685 285.398 146.774 283.488 146.774 281.131V274.219C146.774 271.862 148.685 269.952 151.041 269.952H155.073C157.429 269.952 159.339 271.862 159.339 274.219V281.131C159.339 283.488 157.429 285.398 155.073 285.398H151.041ZM172.246 285.398C169.89 285.398 167.979 283.488 167.979 281.131V274.219C167.979 271.862 169.89 269.952 172.246 269.952H176.278C178.634 269.952 180.545 271.862 180.545 274.219V281.131C180.545 283.488 178.634 285.398 176.278 285.398H172.246ZM193.451 285.398C191.095 285.398 189.185 283.488 189.185 281.131V274.219C189.185 271.862 191.095 269.952 193.451 269.952H197.484C199.84 269.952 201.75 271.862 201.75 274.219V281.131C201.75 283.488 199.84 285.398 197.484 285.398H193.451ZM214.657 285.398C212.301 285.398 210.39 283.488 210.39 281.131V274.219C210.39 271.862 212.301 269.952 214.657 269.952H218.689C221.045 269.952 222.956 271.862 222.956 274.219V281.131C222.956 283.488 221.045 285.398 218.689 285.398H214.657ZM235.862 285.398C233.506 285.398 231.596 283.488 231.596 281.131V274.219C231.596 271.862 233.506 269.952 235.862 269.952H239.894C242.25 269.952 244.161 271.862 244.161 274.219V281.131C244.161 283.488 242.25 285.398 239.894 285.398H235.862ZM257.068 285.398C254.711 285.398 252.801 283.488 252.801 281.131V274.219C252.801 271.862 254.711 269.952 257.068 269.952H261.1C263.455 269.952 265.366 271.862 265.366 274.219V281.131C265.366 283.488 263.455 285.398 261.1 285.398H257.068ZM278.273 285.398C275.916 285.398 274.006 283.488 274.006 281.131V274.219C274.006 271.862 275.916 269.952 278.273 269.952H282.305C284.662 269.952 286.572 271.862 286.572 274.219V281.131C286.572 283.488 284.662 285.398 282.305 285.398H278.273Z" fill="#A140FF"/>
</g>
<defs>
<clipPath id="clip0_123_281">
<rect width="512" height="512" fill="white"/>
</clipPath>
</defs>
</svg>
